<svg xmlns="http://www.w3.org/2000/svg" xmlns:xlink="http://www.w3.org/1999/xlink" viewBox="0 0 537.07 283.06"><defs><style>.cls-1,.cls-10,.cls-11,.cls-12,.cls-13,.cls-14,.cls-15,.cls-16,.cls-17,.cls-18,.cls-19,.cls-2,.cls-20,.cls-21,.cls-22,.cls-23,.cls-24,.cls-3,.cls-4,.cls-5,.cls-6,.cls-7,.cls-8,.cls-9{stroke-miterlimit:10;stroke-opacity:0.33;stroke-width:3px;}.cls-1{fill:url(#Dégradé_sans_nom_17);stroke:url(#Dégradé_sans_nom_8);}.cls-2{fill:url(#Dégradé_sans_nom_17-2);stroke:url(#Dégradé_sans_nom_8-2);}.cls-3{fill:url(#Dégradé_sans_nom_17-3);stroke:url(#Dégradé_sans_nom_8-3);}.cls-4{fill:url(#Dégradé_sans_nom_17-4);stroke:url(#Dégradé_sans_nom_8-4);}.cls-5{fill:url(#Dégradé_sans_nom_17-5);stroke:url(#Dégradé_sans_nom_8-5);}.cls-6{fill:url(#Dégradé_sans_nom_17-6);stroke:url(#Dégradé_sans_nom_8-6);}.cls-7{fill:url(#Dégradé_sans_nom_17-7);stroke:url(#Dégradé_sans_nom_8-7);}.cls-8{fill:url(#Dégradé_sans_nom_17-8);stroke:url(#Dégradé_sans_nom_8-8);}.cls-9{fill:url(#Dégradé_sans_nom_17-9);stroke:url(#Dégradé_sans_nom_8-9);}.cls-10{fill:url(#Dégradé_sans_nom_17-10);stroke:url(#Dégradé_sans_nom_8-10);}.cls-11{fill:url(#Dégradé_sans_nom_17-11);stroke:url(#Dégradé_sans_nom_8-11);}.cls-12{fill:url(#Dégradé_sans_nom_17-12);stroke:url(#Dégradé_sans_nom_8-12);}.cls-13{fill:url(#Dégradé_sans_nom_17-13);stroke:url(#Dégradé_sans_nom_8-13);}.cls-14{fill:url(#Dégradé_sans_nom_17-14);stroke:url(#Dégradé_sans_nom_8-14);}.cls-15{fill:url(#Dégradé_sans_nom_17-15);stroke:url(#Dégradé_sans_nom_8-15);}.cls-16{fill:url(#Dégradé_sans_nom_17-16);stroke:url(#Dégradé_sans_nom_8-16);}.cls-17{fill:url(#Dégradé_sans_nom_17-17);stroke:url(#Dégradé_sans_nom_8-17);}.cls-18{fill:url(#Dégradé_sans_nom_17-18);stroke:url(#Dégradé_sans_nom_8-18);}.cls-19{fill:url(#Dégradé_sans_nom_17-19);stroke:url(#Dégradé_sans_nom_8-19);}.cls-20{fill:url(#Dégradé_sans_nom_17-20);stroke:url(#Dégradé_sans_nom_8-20);}.cls-21{fill:url(#Dégradé_sans_nom_17-21);stroke:url(#Dégradé_sans_nom_8-21);}.cls-22{fill:url(#Dégradé_sans_nom_17-22);stroke:url(#Dégradé_sans_nom_8-22);}.cls-23{fill:url(#Dégradé_sans_nom_17-23);stroke:url(#Dégradé_sans_nom_8-23);}.cls-24{fill:url(#Dégradé_sans_nom_17-24);stroke:url(#Dégradé_sans_nom_8-24);}</style><linearGradient id="Dégradé_sans_nom_17" x1="403.73" y1="226.41" x2="495.46" y2="226.41" gradientTransform="translate(21.92 -57.85) rotate(8.02)" gradientUnits="userSpaceOnUse"><stop offset="0" stop-color="#fff"/><stop offset="0.21" stop-color="#e8e8e8"/><stop offset="0.64" stop-color="#afafaf"/><stop offset="1" stop-color="#7a7a7a"/></linearGradient><linearGradient id="Dégradé_sans_nom_8" x1="401.34" y1="226.41" x2="507.22" y2="226.41" gradientTransform="translate(21.92 -57.85) rotate(8.02)" gradientUnits="userSpaceOnUse"><stop offset="0" stop-color="#fff"/><stop offset="1" stop-color="#a6a6a6"/></linearGradient><linearGradient id="Dégradé_sans_nom_17-2" x1="313.59" y1="151.65" x2="366.55" y2="151.65" xlink:href="#Dégradé_sans_nom_17"/><linearGradient id="Dégradé_sans_nom_8-2" x1="312.09" y1="154.02" x2="368.05" y2="154.02" xlink:href="#Dégradé_sans_nom_8"/><linearGradient id="Dégradé_sans_nom_17-3" x1="358.08" y1="186.46" x2="368.68" y2="186.46" xlink:href="#Dégradé_sans_nom_17"/><linearGradient id="Dégradé_sans_nom_8-3" x1="356.58" y1="186.46" x2="370.18" y2="186.46" xlink:href="#Dégradé_sans_nom_8"/><linearGradient id="Dégradé_sans_nom_17-4" x1="344.95" y1="165.36" x2="356.51" y2="165.36" xlink:href="#Dégradé_sans_nom_17"/><linearGradient id="Dégradé_sans_nom_8-4" x1="343.45" y1="165.36" x2="358.03" y2="165.36" xlink:href="#Dégradé_sans_nom_8"/><linearGradient id="Dégradé_sans_nom_17-5" x1="334.12" y1="145.11" x2="345.68" y2="145.11" xlink:href="#Dégradé_sans_nom_17"/><linearGradient id="Dégradé_sans_nom_8-5" x1="332.62" y1="145.11" x2="347.21" y2="145.11" xlink:href="#Dégradé_sans_nom_8"/><linearGradient id="Dégradé_sans_nom_17-6" x1="368.73" y1="209.29" x2="378.12" y2="209.29" xlink:href="#Dégradé_sans_nom_17"/><linearGradient id="Dégradé_sans_nom_8-6" x1="367.23" y1="209.47" x2="380.05" y2="209.47" xlink:href="#Dégradé_sans_nom_8"/><linearGradient id="Dégradé_sans_nom_17-7" x1="327.13" y1="128.96" x2="335.33" y2="128.96" xlink:href="#Dégradé_sans_nom_17"/><linearGradient id="Dégradé_sans_nom_8-7" x1="325.63" y1="129.53" x2="336.83" y2="129.53" xlink:href="#Dégradé_sans_nom_8"/><linearGradient id="Dégradé_sans_nom_17-8" x1="319.98" y1="98.48" x2="326.8" y2="98.48" xlink:href="#Dégradé_sans_nom_17"/><linearGradient id="Dégradé_sans_nom_8-8" x1="318.48" y1="98.74" x2="328.3" y2="98.74" xlink:href="#Dégradé_sans_nom_8"/><linearGradient id="Dégradé_sans_nom_17-9" x1="322.81" y1="113.07" x2="331.79" y2="113.07" xlink:href="#Dégradé_sans_nom_17"/><linearGradient id="Dégradé_sans_nom_8-9" x1="320.67" y1="113.07" x2="334.47" y2="113.07" xlink:href="#Dégradé_sans_nom_8"/><linearGradient id="Dégradé_sans_nom_17-10" x1="476.42" y1="152.58" x2="486.86" y2="152.58" xlink:href="#Dégradé_sans_nom_17"/><linearGradient id="Dégradé_sans_nom_8-10" x1="473.94" y1="152.58" x2="489.08" y2="152.58" xlink:href="#Dégradé_sans_nom_8"/><linearGradient id="Dégradé_sans_nom_17-11" x1="311.97" y1="263.29" x2="318.91" y2="263.29" xlink:href="#Dégradé_sans_nom_17"/><linearGradient id="Dégradé_sans_nom_8-11" x1="309.82" y1="263.29" x2="321.4" y2="263.29" xlink:href="#Dégradé_sans_nom_8"/><linearGradient id="Dégradé_sans_nom_17-12" x1="208.58" y1="265.59" x2="225.58" y2="265.59" gradientTransform="translate(-19.25 18.07) rotate(-9.41)" xlink:href="#Dégradé_sans_nom_17"/><linearGradient id="Dégradé_sans_nom_8-12" x1="207.04" y1="265.59" x2="227.35" y2="265.59" gradientTransform="translate(-19.25 18.07) rotate(-9.41)" xlink:href="#Dégradé_sans_nom_8"/><linearGradient id="Dégradé_sans_nom_17-13" x1="206.08" y1="237.94" x2="219.56" y2="237.94" gradientTransform="translate(-19.25 18.07) rotate(-9.41)" xlink:href="#Dégradé_sans_nom_17"/><linearGradient id="Dégradé_sans_nom_8-13" x1="204.58" y1="237.94" x2="221.06" y2="237.94" gradientTransform="translate(-19.25 18.07) rotate(-9.41)" xlink:href="#Dégradé_sans_nom_8"/><linearGradient id="Dégradé_sans_nom_17-14" x1="45.82" y1="252.69" x2="122.51" y2="252.69" gradientTransform="translate(-19.25 18.07) rotate(-9.41)" xlink:href="#Dégradé_sans_nom_17"/><linearGradient id="Dégradé_sans_nom_8-14" x1="43.99" y1="252.79" x2="126.07" y2="252.79" gradientTransform="translate(-19.25 18.07) rotate(-9.41)" xlink:href="#Dégradé_sans_nom_8"/><linearGradient id="Dégradé_sans_nom_17-15" x1="194.16" y1="211.49" x2="207.71" y2="211.49" gradientTransform="translate(-19.25 18.07) rotate(-9.41)" xlink:href="#Dégradé_sans_nom_17"/><linearGradient id="Dégradé_sans_nom_8-15" x1="191.51" y1="211.38" x2="209.21" y2="211.38" gradientTransform="translate(-19.25 18.07) rotate(-9.41)" xlink:href="#Dégradé_sans_nom_8"/><linearGradient id="Dégradé_sans_nom_17-16" x1="90.46" y1="236.53" x2="105.16" y2="236.53" gradientTransform="translate(-19.25 18.07) rotate(-9.41)" xlink:href="#Dégradé_sans_nom_17"/><linearGradient id="Dégradé_sans_nom_8-16" x1="87.86" y1="236.76" x2="107.84" y2="236.76" gradientTransform="translate(-19.25 18.07) rotate(-9.41)" xlink:href="#Dégradé_sans_nom_8"/><linearGradient id="Dégradé_sans_nom_17-17" x1="157.94" y1="172.29" x2="169.77" y2="172.29" gradientTransform="translate(-19.25 18.07) rotate(-9.41)" xlink:href="#Dégradé_sans_nom_17"/><linearGradient id="Dégradé_sans_nom_8-17" x1="156.37" y1="172.63" x2="172.07" y2="172.63" gradientTransform="translate(-19.25 18.07) rotate(-9.41)" xlink:href="#Dégradé_sans_nom_8"/><linearGradient id="Dégradé_sans_nom_17-18" x1="145.06" y1="155.75" x2="156.3" y2="155.75" gradientTransform="translate(-19.25 18.07) rotate(-9.41)" xlink:href="#Dégradé_sans_nom_17"/><linearGradient id="Dégradé_sans_nom_8-18" x1="143.56" y1="155.75" x2="157.82" y2="155.75" gradientTransform="translate(-19.25 18.07) rotate(-9.41)" xlink:href="#Dégradé_sans_nom_8"/><linearGradient id="Dégradé_sans_nom_17-19" x1="110.42" y1="241.4" x2="121.53" y2="241.4" gradientTransform="translate(-19.25 18.07) rotate(-9.41)" xlink:href="#Dégradé_sans_nom_17"/><linearGradient id="Dégradé_sans_nom_8-19" x1="108.92" y1="241.73" x2="123.03" y2="241.73" gradientTransform="translate(-19.25 18.07) rotate(-9.41)" xlink:href="#Dégradé_sans_nom_8"/><linearGradient id="Dégradé_sans_nom_17-20" x1="137.11" y1="137.93" x2="149.52" y2="137.93" gradientTransform="translate(-19.25 18.07) rotate(-9.41)" xlink:href="#Dégradé_sans_nom_17"/><linearGradient id="Dégradé_sans_nom_8-20" x1="135.61" y1="137.93" x2="152.13" y2="137.93" gradientTransform="translate(-19.25 18.07) rotate(-9.41)" xlink:href="#Dégradé_sans_nom_8"/><linearGradient id="Dégradé_sans_nom_17-21" x1="72.43" y1="238.41" x2="84.45" y2="238.41" gradientTransform="translate(-19.25 18.07) rotate(-9.41)" xlink:href="#Dégradé_sans_nom_17"/><linearGradient id="Dégradé_sans_nom_8-21" x1="70.03" y1="238.11" x2="85.95" y2="238.11" gradientTransform="translate(-19.25 18.07) rotate(-9.41)" xlink:href="#Dégradé_sans_nom_8"/><linearGradient id="Dégradé_sans_nom_17-22" x1="55.6" y1="248.47" x2="66.34" y2="248.47" gradientTransform="translate(-19.25 18.07) rotate(-9.41)" xlink:href="#Dégradé_sans_nom_17"/><linearGradient id="Dégradé_sans_nom_8-22" x1="53.19" y1="248.72" x2="68.83" y2="248.72" gradientTransform="translate(-19.25 18.07) rotate(-9.41)" xlink:href="#Dégradé_sans_nom_8"/><linearGradient id="Dégradé_sans_nom_17-23" x1="135.5" y1="120.33" x2="144.17" y2="120.33" gradientTransform="translate(-19.25 18.07) rotate(-9.41)" xlink:href="#Dégradé_sans_nom_17"/><linearGradient id="Dégradé_sans_nom_8-23" x1="133.32" y1="120.33" x2="146.63" y2="120.33" gradientTransform="translate(-19.25 18.07) rotate(-9.41)" xlink:href="#Dégradé_sans_nom_8"/><linearGradient id="Dégradé_sans_nom_17-24" x1="138.81" y1="108.22" x2="145.96" y2="108.22" gradientTransform="translate(-19.25 18.07) rotate(-9.41)" xlink:href="#Dégradé_sans_nom_17"/><linearGradient id="Dégradé_sans_nom_8-24" x1="137.31" y1="108.22" x2="148.73" y2="108.22" gradientTransform="translate(-19.25 18.07) rotate(-9.41)" xlink:href="#Dégradé_sans_nom_8"/></defs><title>Fichier 11</title><g id="Calque_2" data-name="Calque 2"><g id="Calque_1-2" data-name="Calque 1"><path d="M289,252C293,231.4,303.12,222,330.91,214c-2-6.42-3.86-12.91-6.15-19.23-6.91-19.09-14.59-37.91-20.84-57.2-6-18.64-8.75-37.94-6.53-57.65,5-44.53,47.43-76.38,90-67.54C416.79,18.44,438,44.22,438.78,76a80.29,80.29,0,0,1-3.62,26.48c-7,21.38-31.68,33-53.13,26.16-13.25-4.23-16.92-15.35-8.59-26.55a48.65,48.65,0,0,1,8.93-8.86c-2.43,4.26-5.29,8.34-7.2,12.83-3.48,8.17-.14,13.55,8.72,15,18.62,2.94,35.28-9.91,36.62-28.59a56.52,56.52,0,0,0-5.33-28.67c-7.77-16.34-25-25.79-42-23.31-17.62,2.57-34,18.1-37,34.87-1.76,9.88-.9,19.63,1.54,29.2,2.13,8.38,4.31,16.85,7.65,24.78,8.72,20.66,18.08,41.05,27.1,61.37,5.85-5.29,11.46-10.92,17.64-15.82,10.76-8.52,22.61-14.7,36.87-14.64.65,0,1.31-.64,2-1,5.27.51,10.57.77,15.79,1.58,6.7,1.05,13.33,2.53,20,3.83l.21-1.82L429,159.31l-3.4-.17-.09-1.62c9.85-.71,19.71-1.45,29.56-2.07.67,0,1.35,1,2.11,1.18,2.91.77,6.07,4.44,8.64-.73.26-.53,2.19-.34,3.34-.3,5.16.13,10.32.4,15.48.5,17.29.34,31.33-10.79,34.93-27.64,3.91-18.25-4.21-36.1-19.49-42.83-14.82-6.54-36.47-.38-45.7,13-5.12,7.43-5.2,15.67-.21,23.42,4.27,6.63,12.46,9.85,21,8.23,1.43-.26,2.84-.65,4.62-1.06-6.13,6.12-20.53,4.68-27.57-2.41-9.32-9.4-10.38-22.77-2.76-34.31,14.32-21.67,54.58-32.45,77-2,24.34,33.05,4.45,80-36.17,85.37-.91.13-1.82.29-3.07.48,45.58,22.75,40.59,73,17.69,97.8,1.21-4.29,2.29-7.66,3.09-11.08,3.67-15.82,3.24-31.16-6.27-45.08-3-4.42-6-9.14-12.65-9.11-1.76,0-3.42-2.46-5.34-3.29a36.07,36.07,0,0,0-8.31-2.59,32.07,32.07,0,0,0-8.19,0c-2.79.29-6.25.19-8.14,1.78-3.67,3.09-7.24,4.81-12.12,4.64-1.78-.06-4.68,1.59-5.27,3.14-1.83,4.85-5.35,7.16-10,8-3.69.67-4.87,2.46-5.83,6.09s-3.74,7.06-6.35,10c-2.08,2.37-5.09,3.91-8.42,6.36,10.72,8.51,20.12,16.14,32.13,19.5a28.75,28.75,0,0,0,7.9,1c8.32-.07,14.14-4.23,15.93-11.07,1.84-7.07-1.53-14.74-8.4-18.63A59.14,59.14,0,0,0,452,230.9c8.6-.72,16.77,5.32,19.25,14.29a19.19,19.19,0,0,1-10.54,22.91c-9.56,4.51-19.33,3.58-28.58-.53-8.6-3.83-16.74-8.69-25.33-13.23L399,267.49l-11.88-1.68c9.45-14.45,18.26-29.38,28.58-43.18A112.52,112.52,0,0,1,438,200.77c10.68-8.07,23.27-11.35,36.82-8.46,3.63.78,7.13,2.11,11.75,3.51-1.53-.92-2.08-1.29-2.67-1.59s-1.2-.57-1.81-.82c-15.9-6.29-30.7-3.29-44.74,5.46-10.48,6.53-18.81,15.41-25.79,25.44-9.4,13.51-18.31,27.37-27.43,41.09l-64.37-9.07c8-6.78,12.78-15.08,12.59-25.86a27.68,27.68,0,0,0-26.45,23.91ZM332,51.32l-.3-.24c-1.38,2-2.9,3.9-4.11,6-8.07,13.86-10.32,29-9.84,44.77a120,120,0,0,0,8.89,42.83c11.42,27.28,21.07,55,24.07,84.79,1-2.74,2.15-5.68,1.63-8.27-2.65-13-4.94-26.23-8.9-38.88-4.67-14.9-11.31-29.17-16.42-44-7.84-22.66-10.54-45.79-3.08-69.13C326,63,329.32,57.27,332,51.32Zm25.51,120.54-2.28-.3c-1.68,1.89-4.22,3.54-4.82,5.72-.84,3.05,1.33,5.56,4.57,5.94s6-1.42,5.83-4.67C360.76,176.27,358.72,174.09,357.55,171.86Zm-5.79-15.37c.08-.72.17-1.44.25-2.16-1.85-1.7-3.67-4.67-5.57-4.73s-5.18,2.28-5.89,4.27a4.42,4.42,0,0,0,4.62,6C347.41,159.75,349.57,157.68,351.76,156.49Zm-8.09-21,.42-2.25c-1.76-1.76-3.23-4.37-5.34-5.09a4.5,4.5,0,0,0-6.16,4.41c.06,2.06,2.48,5.16,4.44,5.72S341.43,136.55,343.67,135.51Zm24,62.72c-3.56-2.93-6.66-2.93-8.87.44s-.74,6.18,3.2,8.23C363.87,204.09,365.64,201.39,367.7,198.23Zm-36.2-77.08c2.31-2.78,4.72-4.41,4.65-5.94s-2.32-3.89-4-4.31c-1.11-.27-4,2.13-4.13,3.52C327.85,116.11,329.74,118,331.5,121.15Zm-3.72-31.92c2.08-2.24,4.16-3.5,4.08-4.61-.11-1.5-1.87-2.89-2.92-4.33-1.33,1-3.57,1.87-3.77,3.07C324.93,84.77,326.45,86.48,327.78,89.23Zm6.93,11.09c-2.3-2.06-3.59-4.08-4.67-4-1.5.15-2.84,1.89-4.26,3,1,1.31,1.9,3.48,3.1,3.68C330.27,103.21,331.94,101.69,334.71,100.32ZM472.36,160c3.7,3,6.69,4,10.41.9C479.58,157.76,476.59,157,472.36,160ZM301,247.55c-1.48-1.67-2.27-3.33-3.25-3.46s-2.34,1.13-3.52,1.79c.77,1.26,1.29,3,2.42,3.61C297.29,249.86,298.92,248.52,301,247.55Z"/><path class="cls-1" d="M384.1,265.4c9.12-13.72,18-27.58,27.43-41.09,7-10,15.31-18.91,25.79-25.44,14-8.75,28.84-11.75,44.74-5.46.61.25,1.22.51,1.81.82s1.14.67,2.67,1.59c-4.62-1.4-8.12-2.73-11.75-3.51-13.55-2.89-26.14.39-36.82,8.46a112.52,112.52,0,0,0-22.32,21.86c-10.32,13.8-19.13,28.73-28.58,43.18Z"/><path class="cls-2" d="M332,51.32c-2.72,6-6.08,11.71-8.06,17.9-7.46,23.34-4.76,46.47,3.08,69.13,5.11,14.78,11.75,29.05,16.42,44,4,12.65,6.25,25.85,8.9,38.88.52,2.59-.66,5.53-1.63,8.27-3-29.8-12.65-57.51-24.07-84.79a120,120,0,0,1-8.89-42.83c-.48-15.73,1.77-30.91,9.84-44.77,1.21-2.08,2.73-4,4.11-6Z"/><path class="cls-3" d="M357.55,171.86c1.17,2.23,3.21,4.41,3.3,6.69.14,3.25-2.61,5-5.83,4.67s-5.41-2.89-4.57-5.94c.6-2.18,3.14-3.83,4.82-5.72Z"/><path class="cls-4" d="M351.76,156.49c-2.19,1.19-4.35,3.26-6.59,3.35a4.42,4.42,0,0,1-4.62-6c.71-2,3.89-4.33,5.89-4.27s3.72,3,5.57,4.73C351.93,155.05,351.84,155.77,351.76,156.49Z"/><path class="cls-5" d="M343.67,135.51c-2.24,1-4.83,3.3-6.64,2.79s-4.38-3.66-4.44-5.72a4.5,4.5,0,0,1,6.16-4.41c2.11.72,3.58,3.33,5.34,5.09Z"/><path class="cls-6" d="M367.7,198.23c-2.06,3.16-3.83,5.86-5.67,8.67-3.94-2.05-5.48-4.77-3.2-8.23S364.14,195.3,367.7,198.23Z"/><path class="cls-7" d="M331.5,121.15c-1.76-3.16-3.65-5-3.49-6.73.13-1.39,3-3.79,4.13-3.52,1.69.42,3.95,2.73,4,4.31S333.81,118.37,331.5,121.15Z"/><path class="cls-8" d="M327.78,89.23c-1.33-2.75-2.85-4.46-2.61-5.87.2-1.2,2.44-2.06,3.77-3.07,1.05,1.44,2.81,2.83,2.92,4.33C331.94,85.73,329.86,87,327.78,89.23Z"/><path class="cls-9" d="M334.71,100.32c-2.77,1.37-4.44,2.89-5.83,2.66-1.2-.2-2.08-2.37-3.1-3.68,1.42-1.06,2.76-2.8,4.26-3C331.12,96.24,332.41,98.26,334.71,100.32Z"/><path class="cls-10" d="M472.36,160c4.23-3,7.22-2.24,10.41.9C479.05,164,476.06,163,472.36,160Z"/><path class="cls-11" d="M301,247.55c-2,1-3.67,2.31-4.35,1.94-1.13-.62-1.65-2.35-2.42-3.61,1.18-.66,2.44-1.93,3.52-1.79S299.48,245.88,301,247.55Z"/><path d="M35.38,283.06C24.16,275.82,15,266.64,8.73,254.75,2.71,243.35-1,231.4.26,218.32c.86-8.76,4.09-16.52,10.7-22.49,8.75-7.89,18.82-11.66,30.34-7.14s18.49,12.85,20.15,25.22c1,7.8-3.14,13.81-9.63,15.46,1.56-2.83,4.53-6,4.9-9.51s-1.22-7.57-3.16-10.63c-5.38-8.48-15.63-12.38-23.19-9.55-8,3-12.92,11.37-11.59,20.58,2.36,16.46,11.8,28.39,25.38,37.12,5.42,3.49,20.24.3,25.86-4.82,3.57-3.25,6.76-6.93,10.44-10.05,12.37-10.51,26.2-17.87,42.9-17.56,5.71.11,11.4,1.79,16.08,2.57l14.17-38.41c-8.44-.39-17.7-.52-26.9-1.33a166.88,166.88,0,0,1-24.14-3.45,34.19,34.19,0,0,1-22.14-16.12c5.3,2.93,10.72,7.41,16.88,9,7.75,2,16.1,2.13,24.19,2.07,13.12-.09,26.27-.67,39.34-1.82,2.68-.24,5-3.9,7.95-6.3-4.48-3.61-8.12-6.44-11.64-9.42-8.72-7.36-16.35-15.68-21.73-25.84-6.91-13-7.7-26.66-3.69-40.71.59-2.07,1.2-4.12,2.06-7.06-28.24,9.21-46.26,28.3-58.58,53.77A87.41,87.41,0,0,1,87.83,104c13-21.56,30.77-37,55.8-43,1.35-.32,3.2-1,3.7-2,5-10.52,8.89-21.36,5.24-33.2C147.72,10,133.1,3.37,117,9.52c-12.33,4.71-20,13.31-22.16,26.73a70.55,70.55,0,0,1,.54-7.85c2.5-14.1,15.87-25.71,32.12-28C141.93-1.71,155,5.26,161.72,18.5c5.64,11.11,6,22.68,3.24,34.56-.45,1.89-.91,3.78-1.38,5.71,55.36,2.19,85.24,62.55,56,119.56,14.67,14.54,23.25,32.56,28.55,52.31,1.46,5.44,2.2,11.07,3.27,16.62l-3.94.65c-2.13-6.27-5.81-9-10.64-7.87s-6.93,4.93-6.13,10.65l-6.91,1.15c-.08-18.42-6.75-34.57-17-49.49-.11-.17-.6-.08-2-.21.09,2-.46,4.25.37,5.67,8.13,13.89,12.33,28.92,13.66,44.84L135,266.55c-6.63-6.42-14.06-10.64-23.14-5.53-6.4,3.6-12.22,8.23-18.29,12.39Zm146-131.82c1.78-3.85,3.49-7.08,4.76-10.48a50.63,50.63,0,0,0,2.48-9.12c3.87-22.71-9-40.64-31.75-44.24-1.38-.22-4,.53-4.33,1.46-4.84,13.28-6.74,26.5,2.24,39C161.69,137.52,170.89,144.53,181.38,151.24Zm54.85,65.55a6.74,6.74,0,1,0-5.26,7.77A6.6,6.6,0,0,0,236.23,216.79Zm-168,48.66.56,1.56c5.1-1.66,10.44-2.83,15.26-5.09,5.84-2.75,11.25-6.42,16.84-9.68,13.38-7.8,26.92-9,40.69-1,.18.1.53-.07,2-.32a36.63,36.63,0,0,0-4.62-3.33c-14.6-7.13-28.08-3.67-41.08,4.45C88.57,257.85,79.87,264.84,68.18,265.45Zm127.65-39.58c-4.87,9.54-1.89,23,4.58,27.66ZM216,186.78l-1.83.75-6.55,12.23c4,.14,7.09,1.11,9.24.06a7.7,7.7,0,0,0,3.46-6.29C220.09,191.15,217.58,189,216,186.78Zm-99.46,53.57c2.67-3,4.54-5.08,6.4-7.17-2.72-1-5.56-2.94-8.12-2.62-2.3.29-4.29,3.09-6.42,4.78ZM165,163.59l4.84,3.71,6.26-9c-2.08-1-4.21-2.9-6.21-2.77C166.21,155.74,164.76,158.69,165,163.59Zm-4.37-16.31-.39-2.13c-2.16-1-4.33-3-6.48-2.92a4.43,4.43,0,0,0-4.3,5.92c.68,1.89,3.88,4.23,5.68,4C157.1,151.94,158.78,149,160.59,147.28Zm-20.35,94.5c1-8.05-2.66-11.24-8.72-9.3-1.13.36-2.72,1.43-2.82,2.32-.14,1.2.63,3.27,1.58,3.7A90.23,90.23,0,0,0,140.24,241.78ZM150.8,129.69c-3.77-1.74-5.91-3.54-8-3.52a4.17,4.17,0,0,0-4,5.85c.75,1.82,3.89,3.82,5.77,3.66S147.86,132.65,150.8,129.69ZM98,235.33l-6.42,8.43c1.47.66,3.06,2.07,4.4,1.86,3.57-.55,6.86-2.28,7-6.42C103,238.24,100.47,237.18,98,235.33Zm-17.12,22.2,5.68-6.87C85.09,250,83,248.47,82.3,249c-2.27,1.49-4,3.75-6,5.72Zm61.77-144.41c-2.47-1.24-4.32-2.91-5.31-2.5-1.4.58-2.16,2.7-3.2,4.16,1.51.94,3,2.6,4.53,2.59C139.74,117.36,140.82,115.15,142.63,113.12Zm-.26-12.57c-2.47-.8-4-1.82-5.17-1.51a3.76,3.76,0,0,0-1.78,3.3c.27,1,2.26,2.3,3.16,2.08C139.76,104.13,140.6,102.47,142.37,100.55Z"/><path class="cls-12" d="M230.72,250.69c-.8-5.72,1.41-9.55,6.13-10.65s8.51,1.6,10.64,7.87Z"/><path class="cls-13" d="M236.23,216.79a6.6,6.6,0,0,1-5.26,7.77,6.68,6.68,0,1,1,5.26-7.77Z"/><path class="cls-14" d="M68.18,265.45c11.69-.61,20.39-7.6,29.63-13.38,13-8.12,26.48-11.58,41.08-4.45a36.63,36.63,0,0,1,4.62,3.33c-1.45.25-1.8.42-2,.32-13.77-8.05-27.31-6.83-40.69,1-5.59,3.26-11,6.93-16.84,9.68-4.82,2.26-10.16,3.43-15.26,5.09Z"/><path class="cls-15" d="M216,186.78c1.54,2.24,4.05,4.37,4.32,6.75a7.7,7.7,0,0,1-3.46,6.29c-2.15,1.05-5.29.08-9.24-.06l6.55-12.23Z"/><path class="cls-16" d="M116.58,240.35l-8.14-5c2.13-1.69,4.12-4.49,6.42-4.78,2.56-.32,5.4,1.65,8.12,2.62C121.12,235.27,119.25,237.37,116.58,240.35Z"/><path class="cls-17" d="M165,163.59c-.2-4.9,1.25-7.85,4.89-8.1,2-.13,4.13,1.78,6.21,2.77l-6.26,9Z"/><path class="cls-18" d="M160.59,147.28c-1.81,1.75-3.49,4.66-5.49,4.89-1.8.21-5-2.13-5.68-4a4.43,4.43,0,0,1,4.3-5.92c2.15,0,4.32,1.88,6.48,2.92Z"/><path class="cls-19" d="M140.24,241.78a90.23,90.23,0,0,1-10-3.28c-.95-.43-1.72-2.5-1.58-3.7.1-.89,1.69-2,2.82-2.32C137.58,230.54,141.22,233.73,140.24,241.78Z"/><path class="cls-20" d="M150.8,129.69c-2.94,3-4.5,5.83-6.3,6s-5-1.84-5.77-3.66a4.17,4.17,0,0,1,4-5.85C144.89,126.15,147,128,150.8,129.69Z"/><path class="cls-21" d="M98,235.33c2.49,1.85,5,2.91,5,3.87-.16,4.14-3.45,5.87-7,6.42-1.34.21-2.93-1.2-4.4-1.86Z"/><path class="cls-22" d="M80.86,257.53l-4.56-2.86c2-2,3.73-4.23,6-5.72.73-.48,2.79,1.08,4.24,1.71Z"/><path class="cls-23" d="M142.63,113.12c-1.81,2-2.89,4.24-4,4.25-1.5,0-3-1.65-4.53-2.59,1-1.46,1.8-3.58,3.2-4.16C138.31,110.21,140.16,111.88,142.63,113.12Z"/><path class="cls-24" d="M142.37,100.55c-1.77,1.92-2.61,3.58-3.79,3.87-.9.22-2.89-1.1-3.16-2.08A3.76,3.76,0,0,1,137.2,99C138.37,98.73,139.9,99.75,142.37,100.55Z"/></g></g></svg>