<svg xmlns="http://www.w3.org/2000/svg" viewBox="0 0 1949.63 175.7"><defs><style>.cls-1,.cls-2{fill:none;stroke-miterlimit:10;}.cls-1{stroke:#003e7b;stroke-width:7px;}.cls-2{stroke:#5ac8d3;stroke-width:10px;}</style></defs><title>Fichier 7</title><g id="Calque_2" data-name="Calque 2"><g id="Calque_1-2" data-name="Calque 1"><path class="cls-1" d="M0,158c74.83,0,74.83-60.8,149.66-60.8S224.49,158,299.32,158,374.15,97.21,449,97.21,523.8,158,598.63,158s74.83-60.8,149.66-60.8S823.12,158,898,158s74.83-60.8,149.66-60.8,74.83,60.8,149.66,60.8,74.82-60.8,149.65-60.8,74.83,60.8,149.66,60.8,74.83-60.8,149.66-60.8,74.84,60.8,149.67,60.8,74.83-60.8,149.66-60.8"/><path class="cls-2" d="M0,150.92c74.83,0,74.83-60.8,149.66-60.8s74.83,60.8,149.66,60.8S374.15,90.12,449,90.12s74.83,60.8,149.66,60.8,74.83-60.8,149.66-60.8,74.83,60.8,149.66,60.8,74.83-60.8,149.66-60.8,74.83,60.8,149.66,60.8,74.82-60.8,149.65-60.8,74.83,60.8,149.66,60.8,74.83-60.8,149.66-60.8,74.84,60.8,149.67,60.8,74.83-60.8,149.66-60.8"/><path class="cls-1" d="M0,172.2c74.83,0,74.83-60.8,149.66-60.8s74.83,60.8,149.66,60.8S374.15,111.4,449,111.4s74.83,60.8,149.66,60.8,74.83-60.8,149.66-60.8S823.12,172.2,898,172.2s74.83-60.8,149.66-60.8,74.83,60.8,149.66,60.8,74.82-60.8,149.65-60.8,74.83,60.8,149.66,60.8,74.83-60.8,149.66-60.8,74.84,60.8,149.67,60.8,74.83-60.8,149.66-60.8"/><path class="cls-2" d="M0,165.1c74.83,0,74.83-60.79,149.66-60.79s74.83,60.79,149.66,60.79S374.15,104.31,449,104.31,523.8,165.1,598.63,165.1s74.83-60.79,149.66-60.79S823.12,165.1,898,165.1s74.83-60.79,149.66-60.79,74.83,60.79,149.66,60.79,74.82-60.79,149.65-60.79,74.83,60.79,149.66,60.79,74.83-60.79,149.66-60.79,74.84,60.79,149.67,60.79,74.83-60.79,149.66-60.79"/><path class="cls-1" d="M0,129.64c74.83,0,74.83-60.8,149.66-60.8s74.83,60.8,149.66,60.8S374.15,68.84,449,68.84s74.83,60.8,149.66,60.8,74.83-60.8,149.66-60.8,74.83,60.8,149.66,60.8,74.83-60.8,149.66-60.8,74.83,60.8,149.66,60.8,74.82-60.8,149.65-60.8,74.83,60.8,149.66,60.8,74.83-60.8,149.66-60.8,74.84,60.8,149.67,60.8,74.83-60.8,149.66-60.8"/><path class="cls-2" d="M0,122.55c74.83,0,74.83-60.8,149.66-60.8s74.83,60.8,149.66,60.8S374.15,61.75,449,61.75s74.83,60.8,149.66,60.8,74.83-60.8,149.66-60.8,74.83,60.8,149.66,60.8,74.83-60.8,149.66-60.8,74.83,60.8,149.66,60.8,74.82-60.8,149.65-60.8,74.83,60.8,149.66,60.8,74.83-60.8,149.66-60.8,74.84,60.8,149.67,60.8,74.83-60.8,149.66-60.8"/><path class="cls-1" d="M0,143.82C74.83,143.82,74.83,83,149.66,83s74.83,60.79,149.66,60.79S374.15,83,449,83s74.83,60.79,149.66,60.79S673.46,83,748.29,83,823.12,143.82,898,143.82,972.78,83,1047.61,83s74.83,60.79,149.66,60.79S1272.09,83,1346.92,83s74.83,60.79,149.66,60.79S1571.41,83,1646.24,83s74.84,60.79,149.67,60.79S1870.74,83,1945.57,83"/><path class="cls-2" d="M0,136.73c74.83,0,74.83-60.8,149.66-60.8s74.83,60.8,149.66,60.8S374.15,75.93,449,75.93s74.83,60.8,149.66,60.8,74.83-60.8,149.66-60.8,74.83,60.8,149.66,60.8,74.83-60.8,149.66-60.8,74.83,60.8,149.66,60.8,74.82-60.8,149.65-60.8,74.83,60.8,149.66,60.8,74.83-60.8,149.66-60.8,74.84,60.8,149.67,60.8,74.83-60.8,149.66-60.8"/><path class="cls-1" d="M4.05,101.27c74.83,0,74.83-60.8,149.66-60.8s74.83,60.8,149.66,60.8S378.2,40.47,453,40.47s74.83,60.8,149.66,60.8,74.83-60.8,149.65-60.8,74.83,60.8,149.66,60.8,74.83-60.8,149.66-60.8,74.83,60.8,149.66,60.8,74.83-60.8,149.66-60.8,74.83,60.8,149.66,60.8,74.83-60.8,149.66-60.8,74.83,60.8,149.66,60.8,74.83-60.8,149.67-60.8"/><path class="cls-2" d="M4.05,94.17c74.83,0,74.83-60.8,149.66-60.8s74.83,60.8,149.66,60.8S378.2,33.37,453,33.37s74.83,60.8,149.66,60.8,74.83-60.8,149.65-60.8S827.17,94.17,902,94.17s74.83-60.8,149.66-60.8,74.83,60.8,149.66,60.8,74.83-60.8,149.66-60.8,74.83,60.8,149.66,60.8,74.83-60.8,149.66-60.8,74.83,60.8,149.66,60.8,74.83-60.8,149.67-60.8"/><path class="cls-1" d="M4.05,115.45c74.83,0,74.83-60.8,149.66-60.8s74.83,60.8,149.66,60.8S378.2,54.65,453,54.65s74.83,60.8,149.66,60.8,74.83-60.8,149.65-60.8,74.83,60.8,149.66,60.8,74.83-60.8,149.66-60.8,74.83,60.8,149.66,60.8,74.83-60.8,149.66-60.8,74.83,60.8,149.66,60.8,74.83-60.8,149.66-60.8,74.83,60.8,149.66,60.8,74.83-60.8,149.67-60.8"/><path class="cls-2" d="M4.05,108.36c74.83,0,74.83-60.8,149.66-60.8s74.83,60.8,149.66,60.8S378.2,47.56,453,47.56s74.83,60.8,149.66,60.8,74.83-60.8,149.65-60.8,74.83,60.8,149.66,60.8,74.83-60.8,149.66-60.8,74.83,60.8,149.66,60.8,74.83-60.8,149.66-60.8,74.83,60.8,149.66,60.8,74.83-60.8,149.66-60.8,74.83,60.8,149.66,60.8,74.83-60.8,149.67-60.8"/><path class="cls-1" d="M4.05,72.89c74.83,0,74.83-60.8,149.66-60.8s74.83,60.8,149.66,60.8S378.2,12.09,453,12.09s74.83,60.8,149.66,60.8,74.83-60.8,149.65-60.8S827.17,72.89,902,72.89s74.83-60.8,149.66-60.8,74.83,60.8,149.66,60.8,74.83-60.8,149.66-60.8,74.83,60.8,149.66,60.8,74.83-60.8,149.66-60.8,74.83,60.8,149.66,60.8,74.83-60.8,149.67-60.8"/><path class="cls-2" d="M4.05,65.8C78.88,65.8,78.88,5,153.71,5s74.83,60.8,149.66,60.8S378.2,5,453,5s74.83,60.8,149.66,60.8S677.52,5,752.34,5,827.17,65.8,902,65.8,976.83,5,1051.66,5s74.83,60.8,149.66,60.8S1276.15,5,1351,5s74.83,60.8,149.66,60.8S1575.47,5,1650.3,5,1725.13,65.8,1800,65.8,1874.79,5,1949.63,5"/><path class="cls-1" d="M4.05,87.08c74.83,0,74.83-60.8,149.66-60.8s74.83,60.8,149.66,60.8S378.2,26.28,453,26.28s74.83,60.8,149.66,60.8,74.83-60.8,149.65-60.8S827.17,87.08,902,87.08s74.83-60.8,149.66-60.8,74.83,60.8,149.66,60.8,74.83-60.8,149.66-60.8,74.83,60.8,149.66,60.8,74.83-60.8,149.66-60.8,74.83,60.8,149.66,60.8,74.83-60.8,149.67-60.8"/><path class="cls-2" d="M4.05,80c74.83,0,74.83-60.8,149.66-60.8S228.54,80,303.37,80,378.2,19.19,453,19.19,527.86,80,602.69,80s74.83-60.8,149.65-60.8S827.17,80,902,80s74.83-60.8,149.66-60.8S1126.49,80,1201.32,80s74.83-60.8,149.66-60.8S1425.81,80,1500.64,80s74.83-60.8,149.66-60.8S1725.13,80,1800,80s74.83-60.8,149.67-60.8"/></g></g></svg>