<svg xmlns="http://www.w3.org/2000/svg" viewBox="0 0 1949.63 175.7"><defs><style>.cls-1,.cls-2{fill:none;stroke-miterlimit:10;}.cls-1{stroke:#003e7b;stroke-width:7px;}.cls-2{stroke:#5ac8d3;stroke-width:10px;}</style></defs><title>Fichier 6</title><g id="Calque_2" data-name="Calque 2"><g id="Calque_1-2" data-name="Calque 1"><path class="cls-1" d="M0,17.69c74.83,0,74.83,60.8,149.66,60.8s74.83-60.8,149.66-60.8S374.15,78.49,449,78.49s74.83-60.8,149.66-60.8,74.83,60.8,149.66,60.8S823.12,17.69,898,17.69s74.83,60.8,149.66,60.8,74.83-60.8,149.66-60.8,74.82,60.8,149.65,60.8,74.83-60.8,149.66-60.8,74.83,60.8,149.66,60.8,74.84-60.8,149.67-60.8,74.83,60.8,149.66,60.8"/><path class="cls-2" d="M0,24.78c74.83,0,74.83,60.8,149.66,60.8s74.83-60.8,149.66-60.8S374.15,85.58,449,85.58s74.83-60.8,149.66-60.8,74.83,60.8,149.66,60.8S823.12,24.78,898,24.78s74.83,60.8,149.66,60.8,74.83-60.8,149.66-60.8,74.82,60.8,149.65,60.8,74.83-60.8,149.66-60.8,74.83,60.8,149.66,60.8,74.84-60.8,149.67-60.8,74.83,60.8,149.66,60.8"/><path class="cls-1" d="M0,3.5c74.83,0,74.83,60.8,149.66,60.8S224.49,3.5,299.32,3.5,374.15,64.3,449,64.3,523.8,3.5,598.63,3.5s74.83,60.8,149.66,60.8S823.12,3.5,898,3.5s74.83,60.8,149.66,60.8,74.83-60.8,149.66-60.8,74.82,60.8,149.65,60.8,74.83-60.8,149.66-60.8,74.83,60.8,149.66,60.8,74.84-60.8,149.67-60.8,74.83,60.8,149.66,60.8"/><path class="cls-2" d="M0,10.59c74.83,0,74.83,60.8,149.66,60.8s74.83-60.8,149.66-60.8S374.15,71.39,449,71.39s74.83-60.8,149.66-60.8,74.83,60.8,149.66,60.8S823.12,10.59,898,10.59s74.83,60.8,149.66,60.8,74.83-60.8,149.66-60.8,74.82,60.8,149.65,60.8,74.83-60.8,149.66-60.8,74.83,60.8,149.66,60.8,74.84-60.8,149.67-60.8,74.83,60.8,149.66,60.8"/><path class="cls-1" d="M0,46.06c74.83,0,74.83,60.8,149.66,60.8s74.83-60.8,149.66-60.8,74.83,60.8,149.65,60.8,74.83-60.8,149.66-60.8,74.83,60.8,149.66,60.8S823.12,46.06,898,46.06s74.83,60.8,149.66,60.8,74.83-60.8,149.66-60.8,74.82,60.8,149.65,60.8,74.83-60.8,149.66-60.8,74.83,60.8,149.66,60.8,74.84-60.8,149.67-60.8,74.83,60.8,149.66,60.8"/><path class="cls-2" d="M0,53.15c74.83,0,74.83,60.8,149.66,60.8s74.83-60.8,149.66-60.8S374.15,114,449,114s74.83-60.8,149.66-60.8S673.46,114,748.29,114,823.12,53.15,898,53.15,972.78,114,1047.61,114s74.83-60.8,149.66-60.8,74.82,60.8,149.65,60.8,74.83-60.8,149.66-60.8,74.83,60.8,149.66,60.8,74.84-60.8,149.67-60.8,74.83,60.8,149.66,60.8"/><path class="cls-1" d="M0,31.87c74.83,0,74.83,60.8,149.66,60.8s74.83-60.8,149.66-60.8S374.15,92.67,449,92.67s74.83-60.8,149.66-60.8,74.83,60.8,149.66,60.8S823.12,31.87,898,31.87s74.83,60.8,149.66,60.8,74.83-60.8,149.66-60.8,74.82,60.8,149.65,60.8,74.83-60.8,149.66-60.8,74.83,60.8,149.66,60.8,74.84-60.8,149.67-60.8,74.83,60.8,149.66,60.8"/><path class="cls-2" d="M0,39c74.83,0,74.83,60.8,149.66,60.8S224.49,39,299.32,39,374.15,99.77,449,99.77,523.8,39,598.63,39s74.83,60.8,149.66,60.8S823.12,39,898,39s74.83,60.8,149.66,60.8S1122.44,39,1197.27,39s74.82,60.8,149.65,60.8S1421.75,39,1496.58,39s74.83,60.8,149.66,60.8S1721.08,39,1795.91,39s74.83,60.8,149.66,60.8"/><path class="cls-1" d="M4.05,74.43c74.83,0,74.83,60.8,149.66,60.8s74.83-60.8,149.66-60.8,74.83,60.8,149.66,60.8,74.83-60.8,149.66-60.8,74.83,60.8,149.65,60.8S827.17,74.43,902,74.43s74.83,60.8,149.66,60.8,74.83-60.8,149.66-60.8,74.83,60.8,149.66,60.8,74.83-60.8,149.66-60.8,74.83,60.8,149.66,60.8,74.83-60.8,149.66-60.8,74.83,60.8,149.67,60.8"/><path class="cls-2" d="M4.05,81.53c74.83,0,74.83,60.79,149.66,60.79s74.83-60.79,149.66-60.79S378.2,142.32,453,142.32s74.83-60.79,149.66-60.79,74.83,60.79,149.65,60.79S827.17,81.53,902,81.53s74.83,60.79,149.66,60.79,74.83-60.79,149.66-60.79,74.83,60.79,149.66,60.79,74.83-60.79,149.66-60.79,74.83,60.79,149.66,60.79S1725.13,81.53,1800,81.53s74.83,60.79,149.67,60.79"/><path class="cls-1" d="M4.05,60.25c74.83,0,74.83,60.8,149.66,60.8s74.83-60.8,149.66-60.8,74.83,60.8,149.66,60.8,74.83-60.8,149.66-60.8,74.83,60.8,149.65,60.8S827.17,60.25,902,60.25s74.83,60.8,149.66,60.8,74.83-60.8,149.66-60.8,74.83,60.8,149.66,60.8,74.83-60.8,149.66-60.8,74.83,60.8,149.66,60.8,74.83-60.8,149.66-60.8,74.83,60.8,149.67,60.8"/><path class="cls-2" d="M4.05,67.34c74.83,0,74.83,60.8,149.66,60.8s74.83-60.8,149.66-60.8,74.83,60.8,149.66,60.8,74.83-60.8,149.66-60.8,74.83,60.8,149.65,60.8S827.17,67.34,902,67.34s74.83,60.8,149.66,60.8,74.83-60.8,149.66-60.8,74.83,60.8,149.66,60.8,74.83-60.8,149.66-60.8,74.83,60.8,149.66,60.8,74.83-60.8,149.66-60.8,74.83,60.8,149.67,60.8"/><path class="cls-1" d="M4.05,102.81c74.83,0,74.83,60.79,149.66,60.79s74.83-60.79,149.66-60.79S378.2,163.6,453,163.6s74.83-60.79,149.66-60.79,74.83,60.79,149.65,60.79S827.17,102.81,902,102.81s74.83,60.79,149.66,60.79,74.83-60.79,149.66-60.79S1276.15,163.6,1351,163.6s74.83-60.79,149.66-60.79,74.83,60.79,149.66,60.79,74.83-60.79,149.66-60.79,74.83,60.79,149.67,60.79"/><path class="cls-2" d="M4.05,109.9c74.83,0,74.83,60.8,149.66,60.8s74.83-60.8,149.66-60.8S378.2,170.7,453,170.7s74.83-60.8,149.66-60.8,74.83,60.8,149.65,60.8S827.17,109.9,902,109.9s74.83,60.8,149.66,60.8,74.83-60.8,149.66-60.8,74.83,60.8,149.66,60.8,74.83-60.8,149.66-60.8,74.83,60.8,149.66,60.8,74.83-60.8,149.66-60.8,74.83,60.8,149.67,60.8"/><path class="cls-1" d="M4.05,88.62c74.83,0,74.83,60.8,149.66,60.8s74.83-60.8,149.66-60.8,74.83,60.8,149.66,60.8,74.83-60.8,149.66-60.8,74.83,60.8,149.65,60.8S827.17,88.62,902,88.62s74.83,60.8,149.66,60.8,74.83-60.8,149.66-60.8,74.83,60.8,149.66,60.8,74.83-60.8,149.66-60.8,74.83,60.8,149.66,60.8,74.83-60.8,149.66-60.8,74.83,60.8,149.67,60.8"/><path class="cls-2" d="M4.05,95.71c74.83,0,74.83,60.8,149.66,60.8s74.83-60.8,149.66-60.8,74.83,60.8,149.66,60.8,74.83-60.8,149.66-60.8,74.83,60.8,149.65,60.8S827.17,95.71,902,95.71s74.83,60.8,149.66,60.8,74.83-60.8,149.66-60.8,74.83,60.8,149.66,60.8,74.83-60.8,149.66-60.8,74.83,60.8,149.66,60.8,74.83-60.8,149.66-60.8,74.83,60.8,149.67,60.8"/></g></g></svg>